<?xml version="1.0" encoding="UTF-8"?>
<svg version="1.1" xmlns="http://www.w3.org/2000/svg" width="346" height="163">
<path d="M0 0 C5.17668287 3.08188112 9.11810647 7.76019357 12 13 C14.07649655 21.30598621 13.99478105 28.02374691 9.9375 35.6875 C5.08321288 41.59136272 0.20668266 46.02924169 -7.64453125 46.8359375 C-15.90799583 46.92704516 -21.88009765 46.65547037 -28.08203125 40.921875 C-33.96835342 34.56292842 -36.03320424 28.18337777 -35.78515625 19.56640625 C-34.78073579 12.05716756 -31.07409555 6.42888884 -25.31640625 1.65625 C-18.09065734 -2.64721414 -7.7411766 -3.41700373 0 0 Z " fill="#AFD036" transform="translate(212.375,57.5)"/>
<path d="M0 0 C4.95 0 9.9 0 15 0 C15.9802271 2.43707838 16.95922171 4.87463945 17.9375 7.3125 C18.21529297 8.00279297 18.49308594 8.69308594 18.77929688 9.40429688 C23.77361933 21.86001673 24.06927872 36.98384783 19.265625 49.66015625 C17.71738297 52.5224926 16.34994471 54.72248509 14 57 C10.765625 57.48828125 10.765625 57.48828125 7.25 57.3125 C6.07953125 57.26738281 4.9090625 57.22226563 3.703125 57.17578125 C2.36507812 57.08876953 2.36507812 57.08876953 1 57 C-6.21836206 43.58474221 -10.06653039 30.15269398 -5.69140625 15.03515625 C-4.06500774 9.94715278 -2.39181385 4.7836277 0 0 Z " fill="#AFCF35" transform="translate(134,40)"/>
<path d="M0 0 C0.77794922 -0.02900391 1.55589844 -0.05800781 2.35742188 -0.08789062 C8.14742139 -0.15066793 12.4845533 1.05530397 17.3125 4.3125 C21.10614192 8.39796053 22.13290909 12.34825317 22.4765625 17.78125 C22.1181662 23.31079294 19.67057803 27.05142754 15.6875 30.75 C10.85664081 33.92819684 6.79800182 33.56746448 1.125 33.625 C-0.27588867 33.66850586 -0.27588867 33.66850586 -1.70507812 33.71289062 C-7.94546382 33.76998071 -11.61440613 33.01412755 -16.6875 29.3125 C-20.65881164 24.32290333 -21.32595459 20.23523626 -21.07421875 13.8984375 C-20.32760327 8.90591783 -17.7525809 6.27367056 -14.125 3 C-9.63783346 -0.10649991 -5.26865748 0.06388833 0 0 Z M-10.6875 12.3125 C-11.94161568 15.67424137 -11.94161568 15.67424137 -11.6875 19.3125 C-10.28441368 22.14968517 -10.28441368 22.14968517 -7.6875 24.3125 C-4.78228997 24.79972793 -2.57060243 24.97162572 0.3125 24.875 C1.37984375 24.89143555 1.37984375 24.89143555 2.46875 24.90820312 C5.92967032 24.85977607 7.96593039 24.56789599 10.77734375 22.49609375 C13.04738097 19.26721129 12.93028085 17.15646974 12.3125 13.3125 C9.63485826 10.5562486 7.97847432 9.41717666 4.15625 8.81640625 C3.0528125 8.83574219 1.949375 8.85507813 0.8125 8.875 C-0.84265625 8.87693359 -0.84265625 8.87693359 -2.53125 8.87890625 C-6.01040685 9.35685973 -7.92723897 10.16119348 -10.6875 12.3125 Z " fill="#B0D136" transform="translate(236.6875,123.6875)"/>
<path d="M0 0 C0.79470703 -0.020625 1.58941406 -0.04125 2.40820312 -0.0625 C8.15603238 -0.10053361 12.46027975 0.70416257 16.83203125 4.78515625 C21.57210426 10.98371326 22.06220724 15.47703335 21.1875 23.25 C19.53502938 27.33844025 17.31672187 29.5088389 13.6640625 31.90625 C8.93527057 33.73400778 4.71285586 33.72604875 -0.3125 33.6875 C-1.23675781 33.70748047 -2.16101563 33.72746094 -3.11328125 33.74804688 C-8.8594732 33.74393658 -12.29514628 33.1432923 -16.8125 29.25 C-20.5530962 24.80172344 -21.86800843 20.95626678 -21.8125 15.25 C-21.05493022 9.08121748 -18.35931696 6.44603806 -13.78515625 2.6328125 C-9.47857929 -0.38605531 -5.03671896 0.03220923 0 0 Z M-11.8125 13.25 C-12.30424857 18.13807774 -12.30424857 18.13807774 -10.29296875 22.44921875 C-6.8920576 24.91822669 -3.8558261 24.83789839 0.1875 24.75 C1.25484375 24.77320313 1.25484375 24.77320313 2.34375 24.796875 C5.83409705 24.77082763 7.83366206 24.51384124 10.66015625 22.40625 C12.73264006 19.4803905 12.69995677 17.7639893 12.1875 14.25 C10.40765595 11.1140843 9.66441793 10.40897264 6.1875 9.25 C4.23274991 9.1052037 2.2723862 9.02932498 0.3125 9 C-0.71617188 8.97421875 -1.74484375 8.9484375 -2.8046875 8.921875 C-6.50129068 9.3251408 -9.16478721 10.60228721 -11.8125 13.25 Z " fill="#B0D136" transform="translate(121.8125,123.75)"/>
<path d="M0 0 C2.97 0 5.94 0 9 0 C9 3.96 9 7.92 9 12 C12.35315065 11.93622936 12.35315065 11.93622936 16 11 C18.33179717 8.51496328 18.33179717 8.51496328 20.1875 5.4375 C24.09693557 0.20237347 24.09693557 0.20237347 28.2421875 -0.7265625 C31.23239253 -0.69138362 34.05260563 -0.49372596 37 0 C35.32770299 3.95969176 32.63695006 7.0161201 29.875 10.25 C29.40707031 10.80429688 28.93914063 11.35859375 28.45703125 11.9296875 C27.30824672 13.28947326 26.15460347 14.64515165 25 16 C26.44874363 20.56270983 28.85377545 23.30170061 32.125 26.75 C37 31.89359504 37 31.89359504 37 33 C25.87819221 34.373272 25.87819221 34.373272 21.35546875 31.06640625 C16 25.03547297 16 25.03547297 16 22 C13.69 22 11.38 22 9 22 C9 25.63 9 29.26 9 33 C6.03 33 3.06 33 0 33 C0 22.11 0 11.22 0 0 Z " fill="#B0D136" transform="translate(24,124)"/>
<path d="M0 0 C2.97 0 5.94 0 9 0 C9 3.96 9 7.92 9 12 C14.73755469 11.26754621 16.65069904 9.44444358 20.1875 4.875 C22.85767493 1.65970286 24.10216541 0.18173037 28.2421875 -0.65625 C31.22155168 -0.62820893 34.05616301 -0.44830005 37 0 C33.39025553 5.96392565 28.72043176 10.89628532 24 16 C25.66469644 19.95126225 28.35773426 22.9745262 31.125 26.1875 C36 31.875 36 31.875 36 33 C31.84097634 33.63335386 28.13922122 33.84179108 24 33 C21.22525178 30.65213612 19.24799879 28.23397478 17.1328125 25.28515625 C14.49931844 22.46355547 12.77797891 22.25294161 9 22 C9 25.63 9 29.26 9 33 C6.03 33 3.06 33 0 33 C0 22.11 0 11.22 0 0 Z " fill="#B0D136" transform="translate(181,124)"/>
<path d="M0 0 C2.97 0 5.94 0 9 0 C9.04898437 1.00160156 9.09796875 2.00320312 9.1484375 3.03515625 C9.22354079 4.37762759 9.29908526 5.7200743 9.375 7.0625 C9.44460938 8.37347656 9.51421875 9.68445313 9.5859375 11.03515625 C10.00534894 15.05121862 10.58889423 18.23225161 12 22 C15.56471391 23.18823797 18.2558336 23.26274852 22 23 C25.1850357 21.23984869 25.83296972 20.50109084 27 17 C27.14403348 15.66636297 27.24590423 14.32781954 27.31640625 12.98828125 C27.35830078 12.23095703 27.40019531 11.47363281 27.44335938 10.69335938 C27.48267578 9.90767578 27.52199219 9.12199219 27.5625 8.3125 C27.60568359 7.51521484 27.64886719 6.71792969 27.69335938 5.89648438 C27.79927368 3.93118553 27.90012551 1.96561504 28 0 C30.97 0 33.94 0 37 0 C37.08127476 3.20884784 37.14063141 6.41561761 37.1875 9.625 C37.21263672 10.52863281 37.23777344 11.43226563 37.26367188 12.36328125 C37.33244609 18.64465943 36.73154527 23.09811338 32.24609375 27.86328125 C31.64925781 28.34152344 31.05242187 28.81976563 30.4375 29.3125 C29.83808594 29.80363281 29.23867188 30.29476562 28.62109375 30.80078125 C24.02596372 34.20007021 18.47997122 33.50519581 13 33 C8.11554143 31.40930907 4.75589532 28.28694828 2 24 C-0.21470213 18.79820853 -0.23993397 14.16835391 -0.125 8.625 C-0.11597656 7.79355469 -0.10695313 6.96210938 -0.09765625 6.10546875 C-0.0742622 4.07018663 -0.03839725 2.03505436 0 0 Z " fill="#B0D136" transform="translate(261,124)"/>
<path d="M0 0 C4.3152083 2.47724921 8.41529449 5.83923488 9.94165039 10.7668457 C10.40084941 13.06698005 10.48849491 15.14025357 10.47265625 17.484375 C10.46943359 18.32871094 10.46621094 19.17304688 10.46289062 20.04296875 C10.45032227 21.35201172 10.45032227 21.35201172 10.4375 22.6875 C10.43298828 23.57566406 10.42847656 24.46382812 10.42382812 25.37890625 C10.41207422 27.56513316 10.39413966 29.75132528 10.375 31.9375 C7.405 31.9375 4.435 31.9375 1.375 31.9375 C1.32601562 30.75671875 1.27703125 29.5759375 1.2265625 28.359375 C1.15151121 26.80206063 1.07596439 25.24477009 1 23.6875 C0.9690625 22.91019531 0.938125 22.13289063 0.90625 21.33203125 C0.68121127 15.8417794 0.68121127 15.8417794 -1.625 10.9375 C-4.16769034 9.03048225 -5.48099893 8.93162241 -8.6875 9.0625 C-11.59785815 9.70078394 -11.59785815 9.70078394 -13.265625 11.4140625 C-15.31510436 15.21855579 -15.19599371 18.92669865 -15.3125 23.1875 C-15.34666016 24.02796875 -15.38082031 24.8684375 -15.41601562 25.734375 C-15.49823568 27.80162204 -15.56330157 29.86953874 -15.625 31.9375 C-18.595 31.9375 -21.565 31.9375 -24.625 31.9375 C-24.73351899 28.58245448 -24.81256353 25.23096028 -24.875 21.875 C-24.90851562 20.93205078 -24.94203125 19.98910156 -24.9765625 19.01757812 C-25.06422343 12.72790639 -24.37336153 9.04523142 -20.625 3.9375 C-14.00577412 -1.19577721 -7.97769906 -2.3382911 0 0 Z " fill="#B0D136" transform="translate(87.625,125.0625)"/>
<path d="M0 0 C0.84755859 0.00322266 1.69511719 0.00644531 2.56835938 0.00976562 C3.44943359 0.01814453 4.33050781 0.02652344 5.23828125 0.03515625 C6.57729492 0.04192383 6.57729492 0.04192383 7.94335938 0.04882812 C10.14586198 0.06060621 12.3483301 0.07854144 14.55078125 0.09765625 C14.55078125 3.06765625 14.55078125 6.03765625 14.55078125 9.09765625 C12.90529297 9.15373047 12.90529297 9.15373047 11.2265625 9.2109375 C9.77210268 9.27662278 8.31767709 9.34306924 6.86328125 9.41015625 C6.14205078 9.43271484 5.42082031 9.45527344 4.67773438 9.47851562 C0.25676201 9.7005736 -2.91861847 10.15663194 -6.44921875 13.09765625 C-7.11588542 16.59765625 -7.11588542 16.59765625 -6.44921875 20.09765625 C-4.90009513 22.16026852 -3.99417163 22.97942624 -1.45629883 23.5300293 C-0.34871216 23.56930542 -0.34871216 23.56930542 0.78125 23.609375 C1.98491211 23.66254883 1.98491211 23.66254883 3.21289062 23.71679688 C4.04626953 23.73935547 4.87964844 23.76191406 5.73828125 23.78515625 C6.58326172 23.81931641 7.42824219 23.85347656 8.29882812 23.88867188 C10.38234774 23.97107096 12.46654341 24.0360427 14.55078125 24.09765625 C14.55078125 27.06765625 14.55078125 30.03765625 14.55078125 33.09765625 C11.1749144 33.20597283 7.80254894 33.28512352 4.42578125 33.34765625 C3.47445312 33.38117188 2.523125 33.4146875 1.54296875 33.44921875 C-4.33367035 33.53083874 -7.83712758 33.13232238 -12.44921875 29.09765625 C-16.18981495 24.64937969 -17.50472718 20.80392303 -17.44921875 15.09765625 C-16.69164897 8.92887373 -13.99603571 6.29369431 -9.421875 2.48046875 C-6.29233324 0.28669096 -3.71112733 -0.02490689 0 0 Z " fill="#B0D136" transform="translate(162.44921875,123.90234375)"/>
<path d="M0 0 C10.89 0 21.78 0 33 0 C33 2.97 33 5.94 33 9 C29.04 9 25.08 9 21 9 C21.12375 10.93875 21.2475 12.8775 21.375 14.875 C21.44460938 15.96554688 21.51421875 17.05609375 21.5859375 18.1796875 C21.73253491 21.13046474 21.73253491 21.13046474 24 23 C26.20250992 23.46006346 26.20250992 23.46006346 28.625 23.625 C30.790625 23.810625 30.790625 23.810625 33 24 C33 26.97 33 29.94 33 33 C22.31412104 33.62247839 22.31412104 33.62247839 17.4375 31.3125 C13.73570765 27.80054315 12.1094868 25.40873018 11.70703125 20.23046875 C11.72675765 18.88249835 11.76222259 17.53467687 11.8125 16.1875 C11.82603516 15.49462891 11.83957031 14.80175781 11.85351562 14.08789062 C11.88861155 12.39158735 11.94241057 10.69568864 12 9 C8.04 9 4.08 9 0 9 C0 6.03 0 3.06 0 0 Z " fill="#B0D136" transform="translate(300,124)"/>
<path d="M0 0 C1.9375 1.0625 1.9375 1.0625 3 3 C3.66189504 8.04694971 3.72229658 9.94751069 0.8125 14.1875 C-0.95882346 15.95882346 -2.76743088 17.69434222 -4.625 19.375 C-8.82321618 24.01513367 -9.91945503 29.64455999 -11.4375 35.5625 C-12.67102276 40.27350715 -14.36815159 43.9160973 -17 48 C-17.66 48 -18.32 48 -19 48 C-19.33773437 46.90300781 -19.67546875 45.80601563 -20.0234375 44.67578125 C-20.47385102 43.22132093 -20.92437784 41.76689569 -21.375 40.3125 C-21.70757812 39.2306543 -21.70757812 39.2306543 -22.046875 38.12695312 C-22.99334804 35.07875319 -23.93221256 32.15306146 -25.2265625 29.23046875 C-26.13188429 26.61966701 -26.13889677 25.50663729 -25 23 C-23.4765625 21.69140625 -23.4765625 21.69140625 -21.625 20.5625 C-15.63116992 16.9024378 -14.17597475 10.89377301 -12.16015625 4.5234375 C-9.45792761 -1.35413726 -5.91255167 -1.50501315 0 0 Z " fill="#B0D136" transform="translate(177,15)"/>
<path d="M0 0 C3.64636871 2.02576039 5.41952935 3.19697383 6.69921875 7.171875 C7.68062806 13.79902601 6.28511586 19.76683744 4 26 C3 27 3 27 -0.16015625 27.09765625 C-1.44792969 27.08605469 -2.73570312 27.07445313 -4.0625 27.0625 C-5.35285156 27.05347656 -6.64320313 27.04445313 -7.97265625 27.03515625 C-8.97167969 27.02355469 -9.97070312 27.01195313 -11 27 C-13.6998128 19.44695227 -15.96327537 11.71186089 -12.75 4 C-9.05197656 -0.2263125 -5.53827525 -0.66841253 0 0 Z " fill="#B0D136" transform="translate(145,5)"/>
<path d="M0 0 C0.55309121 8.57291377 -1.31195761 15.51087113 -6.25 22.625 C-8.93105096 24.9404531 -9.61292889 25.47687663 -12.9375 25.8125 C-16.33419882 25.53050991 -17.99214012 24.53293291 -20.3125 22.0625 C-24.5300464 16.38547569 -26.5446177 10.08003015 -26 3 C-25.01 3.33 -24.02 3.66 -23 4 C-17.27504988 4.47707918 -14.55037243 4.00070617 -9.80859375 0.890625 C-6.57934923 -0.69958613 -3.53032601 -0.24774218 0 0 Z " fill="#070A07" transform="translate(155,70)"/>
<path d="M0 0 C4.03203682 1.58063415 6.49237007 4.46801067 9.375 7.5625 C19.51213448 18.04417693 32.92623653 27.13640206 47.83984375 28.203125 C56.32561421 28.33153515 63.78262958 27.06974247 72 25 C72 25.66 72 26.32 72 27 C57.77271307 33.96738164 46.29732418 36.06493173 31 31 C17.77991027 25.54510861 5.6714579 12.99709103 0 0 Z " fill="#B0D136" transform="translate(157,80)"/>
<path d="M0 0 C2.48684427 1.46660047 4.96257406 2.95089723 7.4375 4.4375 C6.00917371 13.25131833 4.59088361 20.92130019 -0.5625 28.4375 C-1.2225 28.4375 -1.8825 28.4375 -2.5625 28.4375 C-2.90023437 27.34050781 -3.23796875 26.24351563 -3.5859375 25.11328125 C-4.03635102 23.65882093 -4.48687784 22.20439569 -4.9375 20.75 C-5.27007812 19.6681543 -5.27007812 19.6681543 -5.609375 18.56445312 C-6.55896271 15.50622211 -7.52949753 12.51945244 -8.7265625 9.546875 C-9.5625 7.4375 -9.5625 7.4375 -9.5625 5.375 C-7.5872373 1.54792853 -4.31354006 -0.94687465 0 0 Z " fill="#B0D136" transform="translate(160.5625,34.5625)"/>
<path d="M0 0 C4.29 0 8.58 0 13 0 C13.33 1.98 13.66 3.96 14 6 C9.05 6 4.1 6 -1 6 C-0.67 4.02 -0.34 2.04 0 0 Z " fill="#FFFFFF" transform="translate(135,33)"/>
<path d="M0 0 C2.549746 2.35774705 4.34597007 4.91641709 6.25 7.8125 C9.36736978 12.34625436 12.69293992 15.63617472 17 19 C17.66 19.66 18.32 20.32 19 21 C13.54110415 20.8635276 10.67046391 18.60937557 6.83203125 15.03515625 C2.95616361 10.72955488 0.71986696 5.75893567 0 0 Z " fill="#B0D136" transform="translate(156,85)"/>
<path d="M0 0 C0.66 0.33 1.32 0.66 2 1 C2.2734375 2.75 2.2734375 2.75 2.375 5 C2.8906684 10.76443604 4.67972166 16.22451719 8.43359375 20.71484375 C10.74668363 22.61261574 13.0873465 22.67637183 16 23 C12.83390538 24.87620422 10.64167599 25.09662822 7 25 C3.15765114 17.96777661 -0.49047664 11.13693365 -1 3 C-0.67 2.01 -0.34 1.02 0 0 Z " fill="#9DBA30" transform="translate(128,72)"/>
<path d="M0 0 C0.33 0 0.66 0 1 0 C1.59377594 8.90663905 -0.52118216 16.39648115 -4.75 24.25 C-8.16718399 26.90780977 -10.75225944 26.35397838 -15 26 C-14.443125 25.7525 -13.88625 25.505 -13.3125 25.25 C-7.34201869 22.02271281 -4.20686085 18.34599618 -2 12 C-1.13691268 8.02102119 -0.51151032 4.03823934 0 0 Z " fill="#A5C533" transform="translate(155,71)"/>
<path d="M0 0 C3.48539917 0.64544429 6.02819057 2.10134397 9 4 C8.67 5.32 8.34 6.64 8 8 C3.28093812 8 1.72962969 6.71245796 -2 4 C-1.34 2.68 -0.68 1.36 0 0 Z " fill="#FFFFFF" transform="translate(161,30)"/>
<path d="M0 0 C1.56079093 2.34118639 2.58327699 4.2792825 3.6875 6.8125 C6.40539379 12.31927734 10.41096689 15.78811216 15.9375 18.375 C16.9584375 18.684375 16.9584375 18.684375 18 19 C15.57210036 19.87794585 14.43028124 20.17648254 12 19.1796875 C5.76378968 15.11153468 1.90160987 11.44797198 0 4 C0 2.68 0 1.36 0 0 Z " fill="#EFF5D7" transform="translate(180,81)"/>
<path d="M0 0 C1.32 0 2.64 0 4 0 C3.67 1.65 3.34 3.3 3 5 C1.68 4.67 0.36 4.34 -1 4 C-0.67 2.68 -0.34 1.36 0 0 Z " fill="#1B220D" transform="translate(204,67)"/>
<path d="M0 0 C1.32 0 2.64 0 4 0 C4 1.32 4 2.64 4 4 C2.35 3.67 0.7 3.34 -1 3 C-0.67 2.01 -0.34 1.02 0 0 Z " fill="#12170B" transform="translate(208,75)"/>
<path d="M0 0 C2.475 0.495 2.475 0.495 5 1 C4.67 1.99 4.34 2.98 4 4 C2.68 4 1.36 4 0 4 C0 2.68 0 1.36 0 0 Z " fill="#0A0E08" transform="translate(213,68)"/>
</svg>
